<?xml version="1.0" encoding="UTF-8" standalone="no"?>
<svg
   xmlns:dc="http://purl.org/dc/elements/1.1/"
   xmlns:cc="http://creativecommons.org/ns#"
   xmlns:rdf="http://www.w3.org/1999/02/22-rdf-syntax-ns#"
   xmlns:svg="http://www.w3.org/2000/svg"
   xmlns="http://www.w3.org/2000/svg"
   xmlns:sodipodi="http://sodipodi.sourceforge.net/DTD/sodipodi-0.dtd"
   xmlns:inkscape="http://www.inkscape.org/namespaces/inkscape"
   viewBox="0 0 32 32"
   version="1.1"
   id="svg4"
   sodipodi:docname="target.svg"
   inkscape:version="0.92.4 (5da689c313, 2019-01-14)">
  <metadata
     id="metadata10">
    <rdf:RDF>
      <cc:Work
         rdf:about="">
        <dc:format>image/svg+xml</dc:format>
        <dc:type
           rdf:resource="http://purl.org/dc/dcmitype/StillImage" />
      </cc:Work>
    </rdf:RDF>
  </metadata>
  <defs
     id="defs8" />
  <sodipodi:namedview
     pagecolor="#ffffff"
     bordercolor="#666666"
     borderopacity="1"
     objecttolerance="10"
     gridtolerance="10"
     guidetolerance="10"
     inkscape:pageopacity="0"
     inkscape:pageshadow="2"
     inkscape:window-width="2560"
     inkscape:window-height="1377"
     id="namedview6"
     showgrid="false"
     inkscape:zoom="7.375"
     inkscape:cx="16"
     inkscape:cy="16"
     inkscape:window-x="-8"
     inkscape:window-y="-8"
     inkscape:window-maximized="1"
     inkscape:current-layer="svg4" />
  <path
     style="text-indent:0;text-align:start;line-height:normal;text-transform:none;block-progression:tb;-inkscape-font-specification:Bitstream Vera Sans;fill:#ffffff;fill-opacity:1"
     d="M 15 3 L 15 5.0625 C 9.7324351 5.5397801 5.5397801 9.7324351 5.0625 15 L 3 15 L 3 17 L 5.0625 17 C 5.5397801 22.267565 9.7324351 26.46022 15 26.9375 L 15 29 L 17 29 L 17 26.9375 C 22.267565 26.46022 26.46022 22.267565 26.9375 17 L 29 17 L 29 15 L 26.9375 15 C 26.46022 9.7324351 22.267565 5.5397801 17 5.0625 L 17 3 L 15 3 z M 15 7.03125 L 15 9 L 17 9 L 17 7.03125 C 21.192969 7.4846347 24.515365 10.807031 24.96875 15 L 23 15 L 23 17 L 24.96875 17 C 24.515365 21.192969 21.192969 24.515365 17 24.96875 L 17 23 L 15 23 L 15 24.96875 C 10.807031 24.515365 7.4846347 21.192969 7.03125 17 L 9 17 L 9 15 L 7.03125 15 C 7.4846347 10.807031 10.807031 7.4846347 15 7.03125 z"
     overflow="visible"
     font-family="Bitstream Vera Sans"
     id="path2" />
</svg>
